<?xml version="1.0" standalone="no"?>
<!DOCTYPE svg PUBLIC "-//W3C//DTD SVG 20010904//EN"
 "http://www.w3.org/TR/2001/REC-SVG-20010904/DTD/svg10.dtd">
<svg version="1.0" xmlns="http://www.w3.org/2000/svg"
 width="1280.000000pt" height="2048.000000pt" viewBox="0 0 1280.000000 2048.000000"
 preserveAspectRatio="xMidYMid meet">
<metadata>
Created by potrace 1.16, written by Peter Selinger 2001-2019
</metadata>
<g transform="translate(0.000000,2048.000000) scale(0.100000,-0.100000)"
fill="#000000" stroke="none">
<path d="M2405 19454 c-224 -32 -375 -77 -540 -159 -429 -216 -732 -622 -821
-1100 -26 -139 -26 -411 0 -550 41 -218 135 -441 263 -625 57 -81 560 -589
3407 -3437 l3341 -3343 -3341 -3342 c-2847 -2849 -3350 -3357 -3407 -3438
-128 -184 -222 -407 -263 -625 -26 -139 -26 -411 0 -550 118 -635 606 -1123
1241 -1241 149 -28 432 -26 575 5 148 31 268 73 395 137 240 120 -54 -167
4236 4123 4289 4290 4003 3996 4124 4236 114 228 160 427 160 695 0 268 -46
467 -160 695 -121 240 165 -54 -4124 4236 -4290 4290 -3996 4003 -4236 4123
-217 109 -404 155 -655 161 -91 2 -178 1 -195 -1z"/>
</g>
</svg>
