<?xml version="1.0" standalone="no"?>
<!DOCTYPE svg PUBLIC "-//W3C//DTD SVG 20010904//EN"
 "http://www.w3.org/TR/2001/REC-SVG-20010904/DTD/svg10.dtd">
<svg version="1.0" xmlns="http://www.w3.org/2000/svg"
 width="2048.000000pt" height="1280.000000pt" viewBox="0 0 2048.000000 1280.000000"
 preserveAspectRatio="xMidYMid meet">
<metadata>
Created by potrace 1.16, written by Peter Selinger 2001-2019
</metadata>
<g transform="translate(0.000000,1280.000000) scale(0.100000,-0.100000)"
fill="#000000" stroke="none">
<path d="M2335 11765 c-343 -56 -629 -200 -864 -436 -220 -220 -369 -504 -427
-814 -28 -149 -26 -432 5 -575 31 -148 73 -268 137 -395 120 -240 -167 54
4123 -4236 4290 -4289 3996 -4003 4236 -4124 228 -114 427 -160 695 -160 268
0 467 46 695 160 240 121 -54 -165 4236 4124 4290 4290 4003 3996 4123 4236
64 127 106 247 137 395 31 143 33 426 5 575 -118 635 -606 1123 -1241 1241
-139 26 -411 26 -550 0 -218 -41 -441 -135 -625 -263 -81 -57 -589 -560 -3437
-3407 l-3343 -3341 -3342 3341 c-3642 3639 -3405 3409 -3643 3528 -127 64
-257 109 -394 137 -130 27 -402 34 -526 14z"/>
</g>
</svg>
